# xmcd
# 
# Track frame offsets:
#     150
#     13948
#     26236
#     39684
#     52098
#     64617
#     77993
#     94981
#     108404
#     123393
#     136735
#     149163
#     163352
#     177108
#     187669
#     202040
#     215388
#     228179
# 
# Disc length: 3218
# 
# Revision: 1
# Processed by: cddbd v1.5.2PL0 Copyright (c) Steve Scherf et al.
# Submitted via: fre:ac v1.0.27
# 
DISCID=0b0c9012
DTITLE=Various Artist - The Blues - The Collection
DYEAR=2006
DGENRE=Blues
TTITLE0=T-Bone Walker - They Call It Stormy Monday (But Tuesday Is Just As Bad)
TTITLE1=Muddy Waters - Gypsy Woman
TTITLE2=Jimmy Witherspoon - Ain't Nobody's Business If I Do
TTITLE3=Memphis Slim - Old Taylor
TTITLE4=Champion Jack Dupree - Gin Mill Sal (Version of 'Junker Blues')
TTITLE5=Big Bill Broonzy - Keep Your Hands Off Her
TTITLE6=Jimmy Witherspoon - Skidrow Blues
TTITLE7=Robert Johnson - Dust My Broom
TTITLE8=Lonnie Johnson - He's A Jelly-Roll Baker
TTITLE9=Leadbelly - Good Morning Blues
TTITLE10=Big Joe Williams - Baby, Please Don't Go
TTITLE11=John Lee Hooker - Boogie Chillen
TTITLE12=Blind Lemon Jefferson - Matchbox Blues
TTITLE13=Robert Johnson - Love In Vain
TTITLE14=Son House - My Black Mama
TTITLE15=Mississippi John Hurt - Aint't No Telling
TTITLE16=Blind Boy Fuller - Truckin' My Blues Away
TTITLE17=Arthur 'Big Boy' Crudup - That's All Right Mama
EXTD=YEAR: 2006
EXTT0=
EXTT1=
EXTT2=
EXTT3=
EXTT4=
EXTT5=
EXTT6=
EXTT7=
EXTT8=
EXTT9=
EXTT10=
EXTT11=
EXTT12=
EXTT13=
EXTT14=
EXTT15=
EXTT16=
EXTT17=
PLAYORDER=
